<svg xmlns="http://www.w3.org/2000/svg" width="496" height="346" viewBox="0 0 496 346">
  <g id="Group_2" data-name="Group 2" transform="translate(-99 -653)">
    <g id="Path_20" data-name="Path 20" transform="translate(138.383 653)" fill="none">
      <path d="M202.584,0C314.467,0,405.167,67.824,405.167,151.49S342.921,32.73,202.584,32.73,0,235.155,0,151.49,90.7,0,202.584,0Z" stroke="none"/>
      <path d="M 202.5836486816406 -4.57763671875e-05 C 314.4674682617188 -4.57763671875e-05 405.1673278808594 67.82420349121094 405.1673278808594 151.4897155761719 C 405.1673278808594 165.8135070800781 403.3388671875 171.7560424804688 399.6103820800781 171.7560424804688 C 381.5608520507813 171.7560424804688 318.8947143554688 32.72994995117188 202.5836486816406 32.72994995117188 C 86.2811279296875 32.72994995117188 23.6116943359375 171.7560424804688 5.556915283203125 171.7560424804688 C 1.82574462890625 171.7560424804688 -3.0517578125e-05 165.8186187744141 -3.0517578125e-05 151.4897155761719 C -3.0517578125e-05 67.82420349121094 90.6998291015625 -4.57763671875e-05 202.5836486816406 -4.57763671875e-05 Z" stroke="none" fill="#3a3a3a"/>
    </g>
    <g id="Rectangle_42" data-name="Rectangle 42" transform="translate(99 806)" fill="none" stroke="#3a3a3a" stroke-width="32">
      <rect width="147" height="193" rx="41" stroke="none"/>
      <rect x="16" y="16" width="115" height="161" rx="25" fill="none"/>
    </g>
    <g id="Rectangle_44" data-name="Rectangle 44" transform="translate(447 806)" fill="none" stroke="#3a3a3a" stroke-width="32">
      <rect width="148" height="193" rx="41" stroke="none"/>
      <rect x="16" y="16" width="116" height="161" rx="25" fill="none"/>
    </g>
  </g>
</svg>
