<svg xmlns="http://www.w3.org/2000/svg" width="499.125" height="397.791" viewBox="0 0 499.125 397.791">
  <g id="Group_5" data-name="Group 5" transform="translate(-5107 -644.209)">
    <g id="Path_23" data-name="Path 23" transform="translate(5129 665.829)" fill="none">
      <path d="M175.561,66.171H286.9c54.124,0,80.676,23.276,80.676,23.276S474.144,230.542,477,302.223s-43.876,73.948-98,73.948H98c-54.124,0-96.856-4.436-98-73.948s93.425-204.1,93.425-204.1S121.437,66.171,175.561,66.171Z" stroke="none"/>
      <path d="M 175.5605163574219 98.17062377929688 C 141.5657043457031 98.17062377929688 122.1994323730469 114.7269287109375 118.2400512695313 118.4780578613281 C 83.93841552734375 167.778076171875 31.29812622070313 259.3040161132813 31.99560546875 301.6961669921875 C 32.571044921875 336.6670837402344 38.32223510742188 344.170654296875 97.99996948242188 344.170654296875 L 378.9999694824219 344.170654296875 C 399.1435852050781 344.170654296875 429.5849609375 344.170654296875 438.7077026367188 334.6770935058594 C 443.3887939453125 329.8057250976563 445.6325073242188 318.7323608398438 445.0253295898438 303.496826171875 C 443.280029296875 259.69921875 383.7629089355469 164.7695617675781 344.7751159667969 112.384033203125 C 338.6155090332031 108.3786010742188 319.6980895996094 98.17062377929688 286.8984069824219 98.17062377929688 L 175.5605163574219 98.17062377929688 M 175.5605163574219 66.17062377929688 L 286.8984069824219 66.17062377929688 C 341.0223388671875 66.17062377929688 367.57421875 89.44662475585938 367.57421875 89.44662475585938 C 367.57421875 89.44662475585938 474.1434936523438 230.5416412353516 476.9999694824219 302.22265625 C 479.8564147949219 373.9036254882813 433.1238708496094 376.170654296875 378.9999694824219 376.170654296875 L 97.99996948242188 376.170654296875 C 43.87603759765625 376.170654296875 1.143768310546875 371.734375 -3.0517578125e-05 302.22265625 C -1.143768310546875 232.7109069824219 93.42477416992188 98.12371826171875 93.42477416992188 98.12371826171875 C 93.42477416992188 98.12371826171875 121.4365844726563 66.17062377929688 175.5605163574219 66.17062377929688 Z" stroke="none" fill="#3a3a3a"/>
    </g>
    <path id="Path_24" data-name="Path 24" d="M0-21.359S54.9-120.65,111.068-120.65s113.6,99.291,113.6,99.291" transform="translate(5251.5 780.859)" fill="none" stroke="#3a3a3a" stroke-width="32"/>
    <path id="Path_25" data-name="Path 25" d="M18.483,1.554,67,0V27s-32.647,2.539-52.178,7.28S-11.122,45.961-11.122,45.961L-4.151,30.04Z" transform="translate(5249 705)" fill="#fff"/>
    <circle id="Ellipse_12" data-name="Ellipse 12" cx="27" cy="27" r="27" transform="translate(5262 792)" fill="#3a3a3a"/>
    <circle id="Ellipse_13" data-name="Ellipse 13" cx="27" cy="27" r="27" transform="translate(5422 792)" fill="#3a3a3a"/>
    <rect id="Rectangle_61" data-name="Rectangle 61" width="106" height="48" transform="translate(5107 887)" fill="#fff"/>
  </g>
</svg>
