<svg xmlns="http://www.w3.org/2000/svg" width="399.331" height="389.437" viewBox="0 0 399.331 389.437">
  <g id="favorite_3" transform="translate(1718.804 -652.563)">
    <g id="favorite" transform="translate(-1736 379.01)">
      <g id="Path_7" data-name="Path 7" transform="translate(6 271)" fill="none">
        <path d="M209.843,37.384c98.431-78.25,207.772-6.223,200.323,89.975S209.843,391.99,209.843,391.99,21.117,220.943,11.726,127.359,119.67-45.542,209.843,37.384Z" stroke="none"/>
        <path d="M 126.8050537109375 34.55316162109375 C 103.7510681152344 34.55316162109375 81.12515258789063 44.9478759765625 64.72879028320313 63.07196044921875 C 49.11532592773438 80.33059692382813 41.40179443359375 102.5977020263672 43.56597900390625 124.1637878417969 C 48.93246459960938 177.6410675048828 141.2477416992188 282.4115600585938 210.2307434082031 348.572998046875 C 280.4357299804688 283.4898071289063 374.0201416015625 179.6575622558594 378.2615356445313 124.8882446289063 C 380.0869750976563 101.3156127929688 372.4606018066406 79.00796508789063 356.7872619628906 62.07452392578125 C 341.2988891601563 45.341064453125 320.1455078125 36.1259765625 297.2273559570313 36.12689208984375 C 274.731689453125 36.13015747070313 251.4007110595703 45.2266845703125 229.7566070556641 62.43316650390625 L 208.3299713134766 79.466796875 L 188.1821594238281 60.93814086914063 C 169.1443328857422 43.43032836914063 148.4940795898438 34.55316162109375 126.8050537109375 34.55316162109375 M 126.8050537109375 2.55316162109375 C 154.211669921875 2.55316162109375 183.2106781005859 12.89190673828125 209.8432464599609 37.38406372070313 C 239.1189727783203 14.11062622070313 269.3765258789063 4.130889892578125 297.22265625 4.126922607421875 C 363.0008850097656 4.117523193359375 415.39990234375 59.77279663085938 410.1659851074219 127.3589630126953 C 402.7163391113281 223.5567016601563 209.8432464599609 391.9904174804688 209.8432464599609 391.9904174804688 C 209.8432464599609 391.9904174804688 21.11715698242188 220.9429626464844 11.72589111328125 127.3589630126953 C 5.108367919921875 61.4149169921875 61.41769409179688 2.55316162109375 126.8050537109375 2.55316162109375 Z" stroke="none" fill="#3a3a3a"/>
      </g>
    </g>
    <path id="Path_21" data-name="Path 21" d="M-1403.571,751.23c-.095,7.185,4.034,28.609-6.781,40.388a28.827,28.827,0,0,1-3.63,3.288c-12.311,9.609-34.269,11.733-34.269,11.733" transform="translate(-2141.55 -703.821) rotate(-88)" fill="none" stroke="#3a3a3a" stroke-width="32"/>
  </g>
</svg>
