<svg xmlns="http://www.w3.org/2000/svg" width="477" height="480.738" viewBox="0 0 477 480.738">
  <g id="Group_3" data-name="Group 3" transform="translate(-3678 -561.263)">
    <g id="Subtraction_6" data-name="Subtraction 6" transform="translate(3678 561.263)" fill="none">
      <path d="M178.567,480.738H0v-320L239.891,0,477,160.737v320H298.433a43.445,43.445,0,0,0,.567-7v-100a43.049,43.049,0,0,0-43-43H221a43.049,43.049,0,0,0-43,43v100a43.448,43.448,0,0,0,.567,7Z" stroke="none"/>
      <path d="M 146.0001831054688 448.73779296875 L 146.0001831054688 373.7366638183594 C 146.0001831054688 332.3815002441406 179.6451873779297 298.736572265625 221.0004577636719 298.736572265625 L 255.9995422363281 298.736572265625 C 297.3548278808594 298.736572265625 330.9998168945313 332.3815002441406 330.9998168945313 373.7366638183594 L 330.9998168945313 448.7367858886719 L 445 448.7368469238281 L 445 177.7042236328125 L 239.7862854003906 38.58917617797852 L 32 177.8151702880859 L 32 448.7369995117188 L 146.0001831054688 448.73779296875 M 178.5673675537109 480.738037109375 L 178.5661773681641 480.738037109375 L 2.842170943040401e-14 480.7367553710938 L 2.842170943040401e-14 160.7373046875 L 239.8905487060547 3.381347778486088e-05 L 477 160.7373046875 L 477 480.7368469238281 L 298.4328308105469 480.7367553710938 C 298.8087158203125 478.44140625 298.9998168945313 476.0865783691406 298.9998168945313 473.736572265625 L 298.9998168945313 373.7366638183594 C 298.9998168945313 350.0263061523438 279.7099914550781 330.736572265625 255.9995422363281 330.736572265625 L 221.0004577636719 330.736572265625 C 197.2899932861328 330.736572265625 178.0001831054688 350.0263061523438 178.0001831054688 373.7366638183594 L 178.0001831054688 473.736572265625 C 178.0001831054688 476.0841369628906 178.1909027099609 478.4393005371094 178.5671844482422 480.7368469238281 L 178.5673675537109 480.738037109375 Z" stroke="none" fill="#3a3a3a"/>
    </g>
    <rect id="Rectangle_52" data-name="Rectangle 52" width="46" height="33" transform="translate(3816 977)" fill="#fff"/>
    <rect id="Rectangle_53" data-name="Rectangle 53" width="46" height="33" transform="matrix(0.588, 0.809, -0.809, 0.588, 3762.83, 660.194)" fill="#fff"/>
  </g>
</svg>
