<?xml version="1.0" encoding="iso-8859-1"?>
<!-- Generator: Adobe Illustrator 19.0.0, SVG Export Plug-In . SVG Version: 6.00 Build 0)  -->
<svg version="1.1" id="Capa_1" xmlns="http://www.w3.org/2000/svg" xmlns:xlink="http://www.w3.org/1999/xlink" x="0px" y="0px"
	 viewBox="0 0 420.2 420.2" style="enable-background:new 0 0 420.2 420.2;" xml:space="preserve">
<g>
	<g>
		<path d="M354.3,127.1c-0.1,0-0.1,0-0.2,0h-58V83.2c0-45.9-37.6-83.2-83.5-83.2c-45.9,0-83.5,37.3-83.5,83.2v43.9h-63
			c-5.4-0.1-9.9,4.2-10,9.6c0,0.1,0,0.1,0,0.2v233.4c0,27.6,22.4,49.9,50,49.9h208c27.6,0,50-22.3,50-49.9V136.9
			C364.1,131.5,359.7,127.1,354.3,127.1z M149.1,83.2c0-34.9,28.6-63.2,63.5-63.2c34.9,0,63.5,28.3,63.5,63.2v43.9h-127V83.2z
			 M344.1,370.2c0,16.5-13.4,29.9-30,29.9h-208c-16.5,0-30-13.3-30-29.8V147.1h53v58.1c0,5.5,4.5,10,10,10s10-4.5,10-10v-58.1h127
			v58.1c0,5.5,4.5,10,10,10s10-4.5,10-10v-58.1h48V370.2z"/>
	</g>
</g>
<g>
	<g>
		<path d="M202.1,259.1h-74c-5.5,0-10,4.5-10,10s4.5,10,10,10h74c5.5,0,10-4.5,10-10S207.6,259.1,202.1,259.1z"/>
	</g>
</g>
<g>
	<g>
		<path d="M292.1,309.1h-164c-5.5,0-10,4.5-10,10s4.5,10,10,10h164c5.5,0,10-4.5,10-10S297.6,309.1,292.1,309.1z"/>
	</g>
</g>
<g>
</g>
<g>
</g>
<g>
</g>
<g>
</g>
<g>
</g>
<g>
</g>
<g>
</g>
<g>
</g>
<g>
</g>
<g>
</g>
<g>
</g>
<g>
</g>
<g>
</g>
<g>
</g>
<g>
</g>
</svg>
